<svg width="352" height="64" viewBox="0 0 352 64" fill="none" xmlns="http://www.w3.org/2000/svg">
<path d="M156.916 4.36762C149.102 -2.29077 137.482 -1.09312 130.311 6.30669L127.502 9.20102L124.693 6.30669C117.536 -1.09312 105.901 -2.29077 98.0879 4.36762C89.134 12.0098 88.6635 25.7258 96.6764 34.0096L124.265 62.4967C126.047 64.336 128.942 64.336 130.724 62.4967L158.313 34.0096C166.34 25.7258 165.87 12.0098 156.916 4.36762V4.36762Z" fill="white"/>
<path d="M33.9453 39.7207L39.209 11.8984H47.2388L38.5645 51H30.4541L24.0894 24.8428L17.7246 51H9.61426L0.939941 11.8984H8.96973L14.2603 39.667L20.7056 11.8984H27.5269L33.9453 39.7207ZM63.6206 51.5371C59.3595 51.5371 55.8862 50.2301 53.2007 47.6162C50.533 45.0023 49.1992 41.52 49.1992 37.1694V36.4175C49.1992 33.4992 49.7632 30.8942 50.8911 28.6025C52.019 26.293 53.6125 24.5205 55.6714 23.2852C57.7482 22.0319 60.1115 21.4053 62.7612 21.4053C66.7358 21.4053 69.86 22.6585 72.1338 25.165C74.4255 27.6715 75.5713 31.2254 75.5713 35.8267V38.9956H57.0679C57.3185 40.8934 58.0705 42.4152 59.3237 43.561C60.5949 44.7069 62.1973 45.2798 64.1309 45.2798C67.1208 45.2798 69.4572 44.1966 71.1401 42.0303L74.9536 46.3003C73.7899 47.9474 72.2144 49.2365 70.2271 50.1675C68.2397 51.0806 66.0376 51.5371 63.6206 51.5371ZM62.7344 27.6895C61.1947 27.6895 59.9414 28.2087 58.9746 29.2471C58.0257 30.2855 57.417 31.7715 57.1484 33.7051H67.9443V33.0874C67.9085 31.3687 67.443 30.0438 66.5479 29.1128C65.6527 28.1639 64.3815 27.6895 62.7344 27.6895Z" fill="white"/>
<path d="M213.288 51H205.231L189.548 25.2725V51H181.491V11.8984H189.548L205.258 37.6797V11.8984H213.288V51ZM233.188 51.5371C228.927 51.5371 225.454 50.2301 222.768 47.6162C220.1 45.0023 218.767 41.52 218.767 37.1694V36.4175C218.767 33.4992 219.331 30.8942 220.458 28.6025C221.586 26.293 223.18 24.5205 225.239 23.2852C227.316 22.0319 229.679 21.4053 232.329 21.4053C236.303 21.4053 239.427 22.6585 241.701 25.165C243.993 27.6715 245.139 31.2254 245.139 35.8267V38.9956H226.635C226.886 40.8934 227.638 42.4152 228.891 43.561C230.162 44.7069 231.765 45.2798 233.698 45.2798C236.688 45.2798 239.025 44.1966 240.708 42.0303L244.521 46.3003C243.357 47.9474 241.782 49.2365 239.794 50.1675C237.807 51.0806 235.605 51.5371 233.188 51.5371ZM232.302 27.6895C230.762 27.6895 229.509 28.2087 228.542 29.2471C227.593 30.2855 226.984 31.7715 226.716 33.7051H237.512V33.0874C237.476 31.3687 237.01 30.0438 236.115 29.1128C235.22 28.1639 233.949 27.6895 232.302 27.6895ZM260.634 30.6167L265.522 21.9424H273.82L265.549 36.1758L274.169 51H265.844L260.661 41.8691L255.505 51H247.153L255.773 36.1758L247.529 21.9424H255.854L260.634 30.6167ZM286.845 14.7988V21.9424H291.813V27.6357H286.845V42.1377C286.845 43.2119 287.051 43.9818 287.463 44.4473C287.875 44.9128 288.662 45.1455 289.826 45.1455C290.686 45.1455 291.446 45.0828 292.109 44.9575V50.8389C290.587 51.3044 289.021 51.5371 287.409 51.5371C281.966 51.5371 279.191 48.7889 279.084 43.2925V27.6357H274.841V21.9424H279.084V14.7988H286.845ZM296.54 47.1865C296.54 45.9512 296.952 44.9486 297.775 44.1787C298.617 43.4089 299.664 43.0239 300.917 43.0239C302.189 43.0239 303.236 43.4089 304.06 44.1787C304.901 44.9486 305.322 45.9512 305.322 47.1865C305.322 48.404 304.91 49.3976 304.086 50.1675C303.263 50.9194 302.207 51.2954 300.917 51.2954C299.646 51.2954 298.599 50.9194 297.775 50.1675C296.952 49.3976 296.54 48.404 296.54 47.1865ZM320.361 21.9424V52.5845C320.361 55.7892 319.51 58.2778 317.81 60.0503C316.109 61.8407 313.656 62.7358 310.451 62.7358C309.108 62.7358 307.828 62.5837 306.611 62.2793V56.1294C307.542 56.2905 308.356 56.3711 309.055 56.3711C311.4 56.3711 312.573 55.1268 312.573 52.6382V21.9424H320.361ZM311.955 14.4229C311.955 13.2591 312.34 12.3013 313.11 11.5493C313.898 10.7974 314.963 10.4214 316.306 10.4214C317.648 10.4214 318.705 10.7974 319.475 11.5493C320.262 12.3013 320.656 13.2591 320.656 14.4229C320.656 15.6045 320.253 16.5713 319.448 17.3232C318.66 18.0752 317.613 18.4512 316.306 18.4512C314.999 18.4512 313.942 18.0752 313.137 17.3232C312.349 16.5713 311.955 15.6045 311.955 14.4229ZM342.167 42.9702C342.167 42.0213 341.693 41.2783 340.744 40.7412C339.813 40.1862 338.309 39.6938 336.232 39.2642C329.322 37.814 325.866 34.8778 325.866 30.4556C325.866 27.8774 326.931 25.729 329.062 24.0103C331.21 22.2736 334.012 21.4053 337.468 21.4053C341.156 21.4053 344.101 22.2736 346.303 24.0103C348.523 25.7469 349.633 28.0028 349.633 30.7778H341.872C341.872 29.6678 341.514 28.7547 340.798 28.0386C340.082 27.3045 338.963 26.9375 337.441 26.9375C336.134 26.9375 335.122 27.2329 334.406 27.8237C333.69 28.4146 333.332 29.1665 333.332 30.0796C333.332 30.939 333.735 31.6372 334.541 32.1743C335.364 32.6935 336.743 33.1501 338.676 33.5439C340.61 33.9199 342.239 34.3496 343.564 34.833C347.664 36.3369 349.714 38.9419 349.714 42.6479C349.714 45.2977 348.577 47.4461 346.303 49.0933C344.029 50.7225 341.093 51.5371 337.495 51.5371C335.06 51.5371 332.893 51.1074 330.996 50.248C329.116 49.3708 327.639 48.1802 326.564 46.6763C325.49 45.1545 324.953 43.5163 324.953 41.7617H332.312C332.383 43.1403 332.893 44.1966 333.842 44.9307C334.791 45.6647 336.062 46.0317 337.656 46.0317C339.142 46.0317 340.261 45.7542 341.013 45.1992C341.783 44.6263 342.167 43.8833 342.167 42.9702Z" fill="white"/>
</svg>
